<svg width="527" height="314" xmlns="http://www.w3.org/2000/svg" xmlns:xlink="http://www.w3.org/1999/xlink" xml:space="preserve" overflow="hidden"><defs><clipPath id="clip0"><rect x="63" y="303" width="527" height="314"/></clipPath></defs><g clip-path="url(#clip0)" transform="translate(-63 -303)"><path d="M0 0 594.01 0 594.01 334.131 0 334.131Z" fill="#FFFFFF" transform="matrix(1 0 0 1.00093 63 303)"/><path d="M63.3456 57.5684 153.12 57.5684 153.12 114.857 63.3456 114.857Z" fill="#FFFFFF" transform="matrix(1 0 0 1.00093 63 303)"/><path d="M153.12 57.5684 163.585 47.1032 163.585 104.392 153.12 114.857Z" fill="#CDCDCD" fill-rule="evenodd" transform="matrix(1 0 0 1.00093 63 303)"/><path d="M63.3456 57.5684 73.8109 47.1032 163.585 47.1032 153.12 57.5684Z" fill="#FFFFFF" fill-rule="evenodd" transform="matrix(1 0 0 1.00093 63 303)"/><path d="M63.3456 57.5684 73.8109 47.1032 163.585 47.1032 163.585 104.392 153.12 114.857 63.3456 114.857ZM63.3456 57.5684 153.12 57.5684 163.585 47.1032M153.12 57.5684 153.12 114.857" stroke="#000000" stroke-width="0.618759" stroke-miterlimit="8" fill="none" fill-rule="evenodd" transform="matrix(1 0 0 1.00093 63 303)"/><path d="M109.057 84.9249 177.331 84.9249 177.331 85.8531 109.057 85.8531ZM176.712 83.5327 180.424 85.389 176.712 87.2453Z" transform="matrix(1 0 0 1.00093 63 303)"/><path d="M109.521 85.389 109.521 126.846 108.593 126.846 108.593 85.389ZM110.913 126.227 109.057 129.94 107.2 126.227Z" transform="matrix(1 0 0 1.00093 63 303)"/><text font-family="Calibri,Calibri_MSFontService,sans-serif" font-weight="400" font-size="24" transform="matrix(0.464071 0 0 0.464501 247.821 392)">x</text><text font-family="Calibri,Calibri_MSFontService,sans-serif" font-weight="400" font-size="24" transform="matrix(0.464071 0 0 0.464501 169.416 445)">y</text><text font-family="Calibri,Calibri_MSFontService,sans-serif" font-weight="400" font-size="24" transform="matrix(0.464071 0 0 0.464501 167.371 384)">z</text><path d="M63.3456 34.3413C63.3456 29.5997 67.2935 25.756 72.163 25.756 77.0325 25.756 80.9803 29.5997 80.9803 34.3413 80.9803 39.0828 77.0325 42.9265 72.163 42.9265 67.2935 42.9265 63.3456 39.0828 63.3456 34.3413Z" stroke="#000000" stroke-width="0.618759" stroke-miterlimit="8" fill="#FFFFFF" fill-rule="evenodd" transform="matrix(1 0 0 1.00093 63 303)"/><text font-family="Calibri,Calibri_MSFontService,sans-serif" font-weight="400" font-size="24" transform="matrix(0.464071 0 0 0.464501 132.193 341)">1</text><path d="M211.384 61.817 301.086 61.817 301.086 119.498 211.384 119.498Z" fill="#FFFFFF" transform="matrix(1 0 0 1.00093 63 303)"/><path d="M301.087 61.817 311.623 51.2798 311.623 108.961 301.087 119.498Z" fill="#CDCDCD" fill-rule="evenodd" transform="matrix(1 0 0 1.00093 63 303)"/><path d="M211.384 61.817 221.921 51.2798 311.623 51.2798 301.087 61.817Z" fill="#FFFFFF" fill-rule="evenodd" transform="matrix(1 0 0 1.00093 63 303)"/><path d="M211.384 61.817 221.921 51.2798 311.623 51.2798 311.623 108.961 301.087 119.498 211.384 119.498ZM211.384 61.817 301.087 61.817 311.623 51.2798M301.087 61.817 301.087 119.498" stroke="#000000" stroke-width="0.618759" stroke-miterlimit="8" fill="none" fill-rule="evenodd" transform="matrix(1 0 0 1.00093 63 303)"/><path d="M257.095 89.1015 325.369 89.1015 325.369 90.0297 257.095 90.0297ZM324.75 87.7093 328.463 89.5656 324.75 91.4219Z" transform="matrix(1 0 0 1.00093 63 303)"/><path d="M0.464071-3.78236e-07 0.464117 56.6839-0.464024 56.6839-0.464071 3.78236e-07ZM1.85633 56.0653 4.87214e-05 59.7779-1.85624 56.0653Z" transform="matrix(1 0 0 -1.00093 320.095 393.026)"/><text font-family="Calibri,Calibri_MSFontService,sans-serif" font-weight="400" font-size="24" transform="matrix(0.464071 0 0 0.464501 395.745 396)">y</text><text font-family="Calibri,Calibri_MSFontService,sans-serif" font-weight="400" font-size="24" transform="matrix(0.464071 0 0 0.464501 317.34 328)">x</text><text font-family="Calibri,Calibri_MSFontService,sans-serif" font-weight="400" font-size="24" transform="matrix(0.464071 0 0 0.464501 311.99 391)">z</text><path d="M211.384 38.982C211.384 34.2404 215.332 30.3967 220.201 30.3967 225.071 30.3967 229.019 34.2404 229.019 38.982 229.019 43.7235 225.071 47.5672 220.201 47.5672 215.332 47.5672 211.384 43.7235 211.384 38.982Z" stroke="#000000" stroke-width="0.618759" stroke-miterlimit="8" fill="#FFFFFF" fill-rule="evenodd" transform="matrix(1 0 0 1.00093 63 303)"/><text font-family="Calibri,Calibri_MSFontService,sans-serif" font-weight="400" font-size="24" transform="matrix(0.464071 0 0 0.464501 280.118 345)">2</text><path d="M377.057 66.4577 466.759 66.4577 466.759 124.139 377.057 124.139Z" fill="#FFFFFF" transform="matrix(1 0 0 1.00093 63 303)"/><path d="M466.758 66.4577 477.297 55.9205 477.297 113.602 466.758 124.139Z" fill="#CDCDCD" fill-rule="evenodd" transform="matrix(1 0 0 1.00093 63 303)"/><path d="M377.057 66.4577 387.595 55.9205 477.297 55.9205 466.758 66.4577Z" fill="#FFFFFF" fill-rule="evenodd" transform="matrix(1 0 0 1.00093 63 303)"/><path d="M377.057 66.4577 387.595 55.9205 477.297 55.9205 477.297 113.602 466.758 124.139 377.057 124.139ZM377.057 66.4577 466.758 66.4577 477.297 55.9205M466.758 66.4577 466.758 124.139" stroke="#000000" stroke-width="0.618759" stroke-miterlimit="8" fill="none" fill-rule="evenodd" transform="matrix(1 0 0 1.00093 63 303)"/><path d="M3.71465e-07-0.464071 57.7735-0.464024 57.7735 0.464117-3.71465e-07 0.464071ZM57.1549-1.85624 60.8675 4.87214e-05 57.1549 1.85633Z" transform="matrix(-1 0 0 1.00093 485.843 397.294)"/><path d="M0.464071-3.78236e-07 0.464117 56.6839-0.464024 56.6839-0.464071 3.78236e-07ZM1.85633 56.0653 4.87214e-05 59.7779-1.85624 56.0653Z" transform="matrix(1 0 0 -1.00093 485.768 397.206)"/><text font-family="Calibri,Calibri_MSFontService,sans-serif" font-weight="400" font-size="24" transform="matrix(0.464071 0 0 0.464501 414.306 398)">x</text><text font-family="Calibri,Calibri_MSFontService,sans-serif" font-weight="400" font-size="24" transform="matrix(0.464071 0 0 0.464501 483.079 332)">y</text><text font-family="Calibri,Calibri_MSFontService,sans-serif" font-weight="400" font-size="24" transform="matrix(0.464071 0 0 0.464501 488.146 401)">z</text><path d="M377.057 43.3906C377.057 38.5209 381.005 34.5733 385.875 34.5733 390.744 34.5733 394.692 38.5209 394.692 43.3906 394.692 48.2601 390.744 52.2079 385.875 52.2079 381.005 52.2079 377.057 48.2601 377.057 43.3906Z" stroke="#000000" stroke-width="0.618759" stroke-miterlimit="8" fill="#FFFFFF" fill-rule="evenodd" transform="matrix(1 0 0 1.00093 63 303)"/><text font-family="Calibri,Calibri_MSFontService,sans-serif" font-weight="400" font-size="24" transform="matrix(0.464071 0 0 0.464501 445.856 350)">3</text><path d="M59.169 179.691 148.871 179.691 148.871 237.372 59.169 237.372Z" fill="#FFFFFF" transform="matrix(1 0 0 1.00093 63 303)"/><path d="M148.872 179.691 159.408 169.154 159.408 226.835 148.872 237.372Z" fill="#CDCDCD" fill-rule="evenodd" transform="matrix(1 0 0 1.00093 63 303)"/><path d="M59.169 179.691 69.7062 169.154 159.408 169.154 148.872 179.691Z" fill="#FFFFFF" fill-rule="evenodd" transform="matrix(1 0 0 1.00093 63 303)"/><path d="M59.169 179.691 69.7062 169.154 159.408 169.154 159.408 226.835 148.872 237.372 59.169 237.372ZM59.169 179.691 148.872 179.691 159.408 169.154M148.872 179.691 148.872 237.372" stroke="#000000" stroke-width="0.618759" stroke-miterlimit="8" fill="none" fill-rule="evenodd" transform="matrix(1 0 0 1.00093 63 303)"/><path d="M3.70738e-07-0.464071 57.8933-0.464024 57.8933 0.464117-3.70738e-07 0.464071ZM57.2742-1.85624 60.9868 4.87214e-05 57.2742 1.85633Z" transform="matrix(-1 0 0 1.00093 167.609 510.632)"/><path d="M105.344 207.44 105.344 248.896 104.416 248.896 104.416 207.44ZM106.736 248.278 104.88 251.99 103.024 248.278Z" transform="matrix(1 0 0 1.00093 63 303)"/><text font-family="Calibri,Calibri_MSFontService,sans-serif" font-weight="400" font-size="24" transform="matrix(0.464071 0 0 0.464501 96.0029 510)">y</text><text font-family="Calibri,Calibri_MSFontService,sans-serif" font-weight="400" font-size="24" transform="matrix(0.464071 0 0 0.464501 165.091 568)">x</text><text font-family="Calibri,Calibri_MSFontService,sans-serif" font-weight="400" font-size="24" transform="matrix(0.464071 0 0 0.464501 170.279 507)">z</text><path d="M59.169 156.624C59.169 151.754 63.1168 147.806 67.9863 147.806 72.8558 147.806 76.8037 151.754 76.8037 156.624 76.8037 161.493 72.8558 165.441 67.9863 165.441 63.1168 165.441 59.169 161.493 59.169 156.624Z" stroke="#000000" stroke-width="0.618759" stroke-miterlimit="8" fill="#FFFFFF" fill-rule="evenodd" transform="matrix(1 0 0 1.00093 63 303)"/><text font-family="Calibri,Calibri_MSFontService,sans-serif" font-weight="400" font-size="24" transform="matrix(0.464071 0 0 0.464501 127.868 463)">4</text><path d="M204.887 233.757 282.29 233.757 282.29 247.118 204.887 247.118Z" fill="#FFFFFF" transform="matrix(1 0 0 1.00093 63 303)"/><path d="M282.29 233.757 337.147 178.899 337.147 192.261 282.29 247.118Z" fill="#CDCDCD" fill-rule="evenodd" transform="matrix(1 0 0 1.00093 63 303)"/><path d="M204.887 233.757 259.744 178.899 337.147 178.899 282.29 233.757Z" fill="#FFFFFF" fill-rule="evenodd" transform="matrix(1 0 0 1.00093 63 303)"/><path d="M204.887 233.757 259.744 178.899 337.147 178.899 337.147 192.261 282.29 247.118 204.887 247.118ZM204.887 233.757 282.29 233.757 337.147 178.899M282.29 233.757 282.29 247.118" stroke="#000000" stroke-width="0.618759" stroke-miterlimit="8" fill="none" fill-rule="evenodd" transform="matrix(1 0 0 1.00093 63 303)"/><path d="M220.201 166.601C220.201 161.86 224.253 158.016 229.251 158.016 234.249 158.016 238.3 161.86 238.3 166.601 238.3 171.343 234.249 175.187 229.251 175.187 224.253 175.187 220.201 171.343 220.201 166.601Z" stroke="#000000" stroke-width="0.618759" stroke-miterlimit="8" fill="#FFFFFF" fill-rule="evenodd" transform="matrix(1 0 0 1.00093 63 303)"/><text font-family="Calibri,Calibri_MSFontService,sans-serif" font-weight="400" font-size="24" transform="matrix(0.464071 0 0 0.464501 289.202 473)">5</text><path d="M0.319161-0.336894 52.4929 49.0908 51.8548 49.7646-0.319161 0.336894ZM53.0015 47.6549 54.4202 51.5555 50.4482 50.3498Z" transform="matrix(-1 0 0 1.00093 333.677 510.632)"/><path d="M271.017 206.975 343.892 206.975 343.892 207.904 271.017 207.904ZM343.273 205.583 346.986 207.44 343.273 209.296Z" transform="matrix(1 0 0 1.00093 63 303)"/><path d="M0.464071-3.78236e-07 0.464117 56.6839-0.464024 56.6839-0.464071 3.78236e-07ZM1.85633 56.0653 4.87214e-05 59.7779-1.85624 56.0653Z" transform="matrix(1 0 0 -1.00093 334.017 510.545)"/><text font-family="Calibri,Calibri_MSFontService,sans-serif" font-weight="400" font-size="24" transform="matrix(0.464071 0 0 0.464501 338.338 454)">z</text><text font-family="Calibri,Calibri_MSFontService,sans-serif" font-weight="400" font-size="24" transform="matrix(0.464071 0 0 0.464501 414.306 519)">x</text><text font-family="Calibri,Calibri_MSFontService,sans-serif" font-weight="400" font-size="24" transform="matrix(0.464071 0 0 0.464501 272.551 576)">y</text><path d="M359.887 233.847 437.663 233.847 437.663 247.117 359.887 247.117Z" fill="#FFFFFF" transform="matrix(1 0 0 1.00093 63 303)"/><path d="M437.663 233.847 492.147 179.363 492.147 192.634 437.663 247.118Z" fill="#CDCDCD" fill-rule="evenodd" transform="matrix(1 0 0 1.00093 63 303)"/><path d="M359.887 233.847 414.37 179.363 492.147 179.363 437.663 233.847Z" fill="#FFFFFF" fill-rule="evenodd" transform="matrix(1 0 0 1.00093 63 303)"/><path d="M359.887 233.847 414.37 179.363 492.147 179.363 492.147 192.634 437.663 247.118 359.887 247.118ZM359.887 233.847 437.663 233.847 492.147 179.363M437.663 233.847 437.663 247.118" stroke="#000000" stroke-width="0.618759" stroke-miterlimit="8" fill="none" fill-rule="evenodd" transform="matrix(1 0 0 1.00093 63 303)"/><path d="M375.201 166.833C375.201 161.964 379.149 158.016 384.018 158.016 388.888 158.016 392.836 161.964 392.836 166.833 392.836 171.703 388.888 175.651 384.018 175.651 379.149 175.651 375.201 171.703 375.201 166.833Z" stroke="#000000" stroke-width="0.618759" stroke-miterlimit="8" fill="#FFFFFF" fill-rule="evenodd" transform="matrix(1 0 0 1.00093 63 303)"/><text font-family="Calibri,Calibri_MSFontService,sans-serif" font-weight="400" font-size="24" transform="matrix(0.464071 0 0 0.464501 444.05 473)">6</text><path d="M0.319162-0.336894 49.9813 46.711 49.3428 47.3849-0.319162 0.336894ZM50.4895 45.275 51.9081 49.1757 47.9362 47.97Z" transform="matrix(1 0 0 -1.00093 488.553 511.081)"/><path d="M425.553 207.44 498.426 207.44 498.426 208.368 425.553 208.368ZM497.808 206.047 501.521 207.904 497.808 209.76Z" transform="matrix(1 0 0 1.00093 63 303)"/><path d="M426.017 207.904 426.017 284.656 425.089 284.656 425.089 207.904ZM427.409 284.037 425.553 287.75 423.696 284.037Z" transform="matrix(1 0 0 1.00093 63 303)"/><text font-family="Calibri,Calibri_MSFontService,sans-serif" font-weight="400" font-size="24" transform="matrix(0.464071 0 0 0.464501 569.152 519)">x</text><text font-family="Calibri,Calibri_MSFontService,sans-serif" font-weight="400" font-size="24" transform="matrix(0.464071 0 0 0.464501 544.612 461)">y</text><text font-family="Calibri,Calibri_MSFontService,sans-serif" font-weight="400" font-size="24" transform="matrix(0.464071 0 0 0.464501 490.116 600)">z</text></g></svg>